<?xml version="1.0" standalone="no"?>
<!DOCTYPE svg PUBLIC "-//W3C//DTD SVG 20010904//EN"
 "http://www.w3.org/TR/2001/REC-SVG-20010904/DTD/svg10.dtd">
<svg version="1.0" xmlns="http://www.w3.org/2000/svg"
 width="475.000000pt" height="475.000000pt" viewBox="0 0 475.000000 475.000000"
 preserveAspectRatio="xMidYMid meet">
<metadata>
Created by potrace 1.14, written by Peter Selinger 2001-2017
</metadata>
<g transform="translate(0.000000,475.000000) scale(0.100000,-0.100000)"
fill="#000000" stroke="none">
<path d="M2187 4733 c-3 -3 -31 -5 -62 -5 -30 -1 -57 -4 -59 -7 -2 -3 -27 -6
-55 -6 -28 0 -51 -3 -51 -7 0 -4 -9 -5 -20 -3 -11 2 -20 0 -20 -6 0 -5 -3 -8
-7 -7 -5 1 -19 -2 -33 -5 -14 -4 -43 -9 -64 -12 -22 -3 -44 -9 -50 -14 -11
-10 -85 -27 -98 -23 -5 1 -8 -3 -8 -10 0 -6 -3 -8 -7 -5 -3 4 -17 0 -29 -8
-13 -8 -31 -16 -41 -18 -10 -1 -24 -6 -30 -10 -7 -5 -13 -6 -13 -2 0 3 -19 -5
-43 -18 -23 -13 -50 -23 -60 -21 -9 1 -17 -1 -17 -5 0 -4 -18 -16 -40 -27 -22
-10 -40 -22 -40 -26 0 -5 -5 -8 -12 -8 -19 0 -128 -53 -128 -62 0 -4 -7 -8
-15 -8 -8 0 -15 -5 -15 -12 0 -6 -3 -8 -7 -5 -3 4 -17 -3 -30 -15 -13 -12 -23
-18 -23 -14 0 7 -12 -2 -48 -34 -14 -12 -52 -33 -81 -43 -3 -1 -19 -17 -38
-34 -18 -18 -39 -33 -45 -33 -6 0 -8 -3 -5 -7 4 -3 -8 -16 -26 -29 -68 -46
-298 -286 -355 -370 -14 -22 -43 -57 -64 -78 -21 -22 -38 -47 -38 -56 0 -9 -9
-27 -20 -40 -11 -13 -20 -27 -20 -31 0 -4 -7 -14 -15 -23 -13 -13 -104 -178
-105 -191 -2 -18 -32 -74 -44 -85 -9 -7 -16 -16 -16 -21 0 -4 -5 -20 -11 -36
-7 -15 -13 -35 -14 -43 -2 -8 -8 -28 -13 -45 -20 -60 -74 -231 -78 -250 -3
-11 -7 -27 -9 -35 -2 -8 -4 -15 -5 -15 -4 0 -12 -43 -14 -76 -2 -20 -6 -42
-10 -48 -4 -6 -2 -11 4 -11 7 0 8 -6 0 -19 -5 -11 -10 -35 -11 -53 0 -18 -4
-42 -8 -53 -5 -11 -4 -28 1 -37 6 -12 5 -18 -3 -18 -12 0 -7 -368 6 -445 4
-22 7 -55 8 -72 0 -18 3 -33 6 -33 3 0 7 -15 8 -32 3 -65 8 -103 15 -108 4 -3
9 -15 11 -25 2 -11 6 -27 9 -35 8 -22 38 -131 44 -159 3 -14 8 -29 12 -35 3
-6 8 -20 9 -31 2 -11 16 -47 33 -80 50 -103 110 -237 110 -246 0 -5 4 -9 9 -9
5 0 12 -11 15 -25 4 -14 14 -33 24 -43 24 -24 57 -76 54 -84 -1 -5 3 -8 8 -8
6 0 10 -6 10 -14 0 -8 14 -29 31 -47 18 -19 47 -56 66 -84 60 -88 210 -251
221 -240 3 3 13 -9 23 -25 11 -17 23 -30 29 -30 5 0 10 -6 10 -12 0 -7 17 -24
37 -38 21 -14 52 -39 70 -57 32 -31 123 -98 134 -98 3 0 13 -7 22 -15 34 -31
46 -40 57 -40 5 0 10 -5 10 -11 0 -5 4 -8 9 -4 6 3 23 -7 38 -22 25 -24 32
-30 46 -34 4 -1 36 -9 50 -12 7 -1 28 -12 48 -24 88 -55 255 -128 314 -138 22
-4 57 -12 65 -15 3 -1 8 -2 13 -1 4 0 7 -3 7 -8 0 -7 61 -23 85 -22 2 0 19 -5
37 -10 57 -17 72 -21 96 -22 12 -1 22 -5 22 -9 0 -4 10 -7 23 -7 31 1 106 -9
117 -16 6 -3 10 -1 10 5 0 7 7 7 23 -2 31 -17 411 -20 460 -3 25 9 39 9 46 2
6 -6 11 -7 11 -2 0 6 21 12 48 14 70 5 107 9 107 11 0 2 14 5 60 13 72 14 186
45 197 55 7 6 32 13 56 17 24 3 63 15 88 26 25 10 51 19 58 19 7 0 23 9 36 20
13 11 27 20 31 20 12 0 123 52 129 61 3 3 32 19 65 34 33 16 72 37 88 47 15
11 27 16 27 11 0 -4 4 -3 8 2 4 6 27 24 52 40 25 16 47 33 50 36 3 4 16 10 30
14 28 9 52 30 43 39 -4 3 -1 6 6 6 7 0 22 11 33 25 10 13 41 37 67 52 27 14
59 43 71 62 12 20 42 52 67 70 25 19 52 46 61 60 9 15 22 30 29 34 7 4 13 15
13 22 0 8 4 15 10 15 18 0 76 66 100 115 8 16 26 42 40 57 38 40 50 56 50 67
0 6 8 15 18 20 9 6 14 11 10 11 -4 0 4 11 17 25 14 13 25 31 25 40 0 16 39
106 50 115 22 17 90 176 90 210 0 11 5 20 11 20 5 0 7 5 3 11 -3 6 -2 14 4 18
8 5 71 172 86 231 3 8 5 15 6 15 1 0 3 9 5 20 1 11 6 34 9 50 4 17 9 44 11 60
1 17 4 30 5 30 2 0 4 14 5 30 1 17 5 37 8 45 22 59 31 371 17 544 -6 71 -14
134 -17 139 -3 5 -7 28 -9 51 -2 22 -6 52 -9 66 -8 32 -15 72 -17 88 -1 6 -4
12 -7 12 -4 0 -8 10 -9 23 -3 40 -60 207 -74 217 -4 3 -9 15 -11 25 -2 11 -10
36 -19 55 -9 19 -26 61 -37 92 -22 61 -36 89 -63 127 -10 13 -16 27 -13 31 3
4 -2 10 -10 14 -8 3 -15 12 -15 20 0 8 -3 16 -7 18 -5 2 -19 25 -33 51 -14 27
-41 66 -61 87 -20 21 -46 57 -57 81 -12 24 -44 64 -72 88 -27 24 -47 47 -45
51 7 12 -76 96 -102 104 -13 4 -23 13 -23 21 0 7 -7 16 -16 19 -9 4 -14 9 -11
12 6 6 -62 74 -74 74 -3 0 -23 14 -44 30 -21 17 -35 30 -32 30 3 0 -5 11 -19
25 -14 14 -29 25 -34 25 -6 0 -10 3 -10 8 0 4 -24 20 -54 35 -29 15 -63 37
-74 48 -12 10 -32 24 -44 29 -20 9 -68 41 -103 67 -5 5 -19 9 -30 11 -11 2
-35 12 -53 23 -18 10 -37 19 -42 19 -4 0 -27 12 -50 28 -23 15 -45 27 -49 27
-3 1 -15 6 -27 12 -11 7 -32 14 -45 17 -13 2 -37 10 -54 17 -28 11 -46 16 -85
22 -8 1 -20 6 -27 10 -20 12 -134 47 -172 52 -40 6 -76 13 -76 15 0 4 -53 13
-82 14 -18 0 -33 4 -33 8 0 4 -15 7 -32 7 -18 0 -117 3 -219 7 -129 4 -188 3
-193 -4 -4 -7 -15 -8 -30 -2 -13 5 -26 6 -29 3z"/>
</g>
</svg>
